<svg width="44" height="44" viewBox="0 0 44 44" fill="none" xmlns="http://www.w3.org/2000/svg">
<circle cx="22" cy="22" r="22" fill="url(#paint0_linear_202_8285)"/>
<path fill-rule="evenodd" clip-rule="evenodd" d="M10.5109 16.2562C9.99634 16.7708 9.99634 17.6052 10.5109 18.1198L15.0044 22.6132C15.519 23.1278 16.3534 23.1278 16.868 22.6132C17.3826 22.0986 17.3826 21.2643 16.868 20.7497L14.6706 18.5523L21.4013 18.5376C22.1291 18.536 22.7178 17.9447 22.7162 17.217C22.7146 16.4892 22.1233 15.9005 21.3956 15.9021L14.5772 15.9171L16.8892 13.6051C17.4038 13.0905 17.4038 12.2561 16.8892 11.7415C16.3746 11.2269 15.5402 11.2269 15.0256 11.7415L10.5109 16.2562ZM33.644 28.781C34.1586 28.2664 34.1586 27.4321 33.644 26.9175L29.1506 22.424C28.636 21.9094 27.8016 21.9094 27.287 22.424C26.7724 22.9386 26.7724 23.7729 27.287 24.2875L29.485 26.4855L22.7536 26.5003C22.0258 26.5019 21.4371 27.0931 21.4387 27.8209C21.4403 28.5486 22.0316 29.1373 22.7593 29.1357L29.5772 29.1208L27.2658 31.4321C26.7512 31.9467 26.7512 32.7811 27.2658 33.2957C27.7804 33.8103 28.6148 33.8103 29.1294 33.2957L33.644 28.781Z" fill="white"/>
<defs>
<linearGradient id="paint0_linear_202_8285" x1="5.53754" y1="4.78261" x2="44.0383" y2="43.2067" gradientUnits="userSpaceOnUse">
<stop stop-color="#FA7250"/>
<stop offset="0.407227" stop-color="#FF1893"/>
<stop offset="1" stop-color="#A78AFF"/>
</linearGradient>
</defs>
</svg>
